<svg width="321" height="321" viewBox="0 0 321 321" fill="none" xmlns="http://www.w3.org/2000/svg">
<path d="M148.932 308.955C66.6789 302.829 4.96612 231.184 11.0921 148.931C17.218 66.6789 88.863 4.96607 171.116 11.092C253.368 17.218 315.081 88.863 308.955 171.116C302.829 253.368 231.184 315.081 148.932 308.955Z" fill="#FFEE58"/>
<path d="M150.638 281.904C150.442 283.258 150.044 284.498 149.444 285.624C148.818 286.77 148.025 287.722 147.066 288.481C146.104 289.263 144.992 289.829 143.729 290.18C142.465 290.531 141.074 290.596 139.553 290.376C138.556 290.231 137.655 290.004 136.851 289.693C136.044 289.407 135.273 289.041 134.537 288.595L136.255 284.515C136.726 284.777 137.249 285.022 137.822 285.251C138.395 285.479 139.05 285.647 139.786 285.753C141.354 285.98 142.6 285.664 143.525 284.803C144.426 283.939 144.992 282.712 145.222 281.12C145.466 279.434 145.299 278.076 144.721 277.047C144.118 276.014 142.915 275.366 141.11 275.105C140.468 275.012 139.771 274.972 139.017 274.984C138.264 274.996 137.559 275.088 136.904 275.26L136.785 270.805C137.44 270.633 138.245 270.519 139.199 270.463C140.153 270.408 141.188 270.46 142.304 270.622C144.014 270.87 145.451 271.332 146.614 272.01C147.773 272.711 148.693 273.56 149.374 274.556C150.03 275.548 150.462 276.665 150.671 277.908C150.851 279.171 150.84 280.503 150.638 281.904Z" fill="#BB6311"/>
<path d="M115.93 279.283L121.72 281.032L125.925 267.11L131.06 268.661L126.855 282.583L132.644 284.332L131.374 288.537L114.66 283.488L115.93 279.283Z" fill="#BB6311"/>
<path d="M99.1584 265.719C99.8134 264.383 100.61 263.25 101.547 262.319C102.473 261.411 103.499 260.737 104.622 260.299C105.735 259.882 106.914 259.712 108.16 259.788C109.384 259.854 110.632 260.198 111.904 260.821C113.153 261.434 114.19 262.209 115.013 263.147C115.815 264.075 116.392 265.106 116.744 266.241C117.086 267.398 117.192 268.626 117.063 269.926C116.923 271.247 116.525 272.576 115.87 273.912C115.215 275.248 114.414 276.365 113.466 277.263C112.496 278.151 111.454 278.803 110.341 279.22C109.207 279.626 108.028 279.796 106.803 279.731C105.558 279.655 104.331 279.321 103.125 278.729C101.896 278.127 100.881 277.362 100.08 276.435C99.2567 275.497 98.669 274.46 98.3166 273.325C97.9642 272.19 97.8527 270.973 97.982 269.673C98.1113 268.373 98.5035 267.055 99.1584 265.719ZM104.072 268.128C103.343 269.615 103.074 270.926 103.266 272.063C103.425 273.21 104.054 274.053 105.153 274.592C106.252 275.13 107.315 275.117 108.341 274.551C109.356 274.006 110.228 272.99 110.957 271.503C111.686 270.016 111.965 268.683 111.795 267.504C111.614 266.346 110.974 265.498 109.875 264.959C108.776 264.42 107.724 264.439 106.72 265.016C105.683 265.604 104.801 266.641 104.072 268.128Z" fill="#BB6311"/>
<path d="M76.535 261.064L87.8029 245.845L92.1428 249.059C91.4288 250.023 90.7122 250.971 89.9931 251.902C89.2598 252.852 88.5835 253.725 87.9644 254.521C87.3453 255.316 86.8048 256.006 86.3428 256.59C85.8472 257.179 85.4923 257.618 85.2781 257.907C86.423 257.53 87.575 257.144 88.7342 256.748C89.8934 256.352 91.0261 255.951 92.1325 255.546C93.2052 255.146 94.2372 254.76 95.2286 254.389C96.2006 254.004 97.0816 253.641 97.8715 253.3L101.662 256.107L90.3938 271.325L86.0828 268.133C86.7969 267.169 87.492 266.25 88.1682 265.377C88.8109 264.509 89.4061 263.726 89.9538 263.026C90.5015 262.327 90.9849 261.714 91.4041 261.188C91.8089 260.682 92.1185 260.284 92.3327 259.995C89.9186 260.835 87.7296 261.573 85.7654 262.21C83.782 262.831 81.9204 263.349 80.1805 263.763L76.535 261.064Z" fill="#BB6311"/>
<path d="M73.5921 247.25C74.2505 246.726 74.9625 246.154 75.7283 245.534C76.494 244.914 77.2687 244.287 78.0523 243.651C78.8021 243.013 79.533 242.408 80.245 241.836C80.9232 241.263 81.5208 240.761 82.0379 240.331L85.516 244.223C84.4997 245.067 83.3421 246.005 82.0433 247.037C80.7285 248.051 79.3957 249.08 78.0451 250.126C76.6606 251.17 75.3119 252.182 73.999 253.162C72.6701 254.124 71.4745 254.984 70.4121 255.74L67.4378 252.411C68.0029 250.522 68.6688 248.656 69.4354 246.812C70.2019 244.969 71.0707 242.969 72.0418 240.814C69.6521 241.598 67.4126 242.279 65.3234 242.858C63.2162 243.454 61.4504 243.873 60.026 244.116L57.0037 240.733C57.8581 239.745 58.8459 238.653 59.9669 237.458C61.0719 236.245 62.2288 235.019 63.4374 233.778C64.6121 232.535 65.7849 231.326 66.9558 230.151C68.1267 228.976 69.1883 227.931 70.1406 227.016L73.6906 230.989C72.3267 232.272 70.9877 233.565 69.6736 234.868C68.3435 236.153 67.0582 237.398 65.8176 238.603L74.9526 235.751L77.4232 238.516L73.5921 247.25Z" fill="#BB6311"/>
<path d="M51.6463 214.264C52.9282 213.509 54.2164 213 55.5109 212.739C56.7847 212.489 58.0113 212.491 59.1906 212.743C60.3493 213.007 61.4279 213.513 62.4264 214.262C63.4127 214.99 64.2653 215.964 64.9844 217.184C65.6912 218.383 66.1304 219.601 66.3018 220.837C66.4611 222.052 66.3758 223.231 66.0458 224.373C65.6952 225.527 65.1084 226.611 64.2855 227.625C63.442 228.652 62.3792 229.543 61.0973 230.298C59.8155 231.054 58.5315 231.546 57.2455 231.775C55.9473 231.983 54.7189 231.955 53.5602 231.69C52.3894 231.406 51.3108 230.899 50.3245 230.171C49.326 229.422 48.4855 228.469 47.803 227.311C47.1084 226.133 46.6814 224.936 46.5221 223.72C46.3506 222.484 46.4299 221.295 46.7598 220.154C47.0898 219.012 47.6662 217.934 48.4891 216.919C49.312 215.905 50.3644 215.02 51.6463 214.264ZM54.4249 218.978C52.9983 219.819 52.0525 220.767 51.5874 221.821C51.0894 222.867 51.1512 223.917 51.7727 224.971C52.3943 226.026 53.2892 226.599 54.4574 226.69C55.605 226.794 56.8921 226.425 58.3187 225.584C59.7453 224.743 60.7118 223.784 61.2183 222.705C61.7041 221.639 61.6362 220.578 61.0147 219.524C60.3931 218.469 59.5043 217.907 58.3483 217.836C57.1593 217.757 55.8515 218.138 54.4249 218.978Z" fill="#BB6311"/>
<path d="M50.6115 211.625C49.3363 212.12 48.0612 212.383 46.7862 212.415C45.4802 212.433 44.2612 212.212 43.1293 211.75C41.9751 211.297 40.9346 210.607 40.0079 209.68C39.0812 208.753 38.3398 207.573 37.7837 206.141C37.4187 205.202 37.1736 204.306 37.0484 203.453C36.9009 202.609 36.8403 201.757 36.8667 200.897L41.2641 200.387C41.2676 200.926 41.3109 201.501 41.3939 202.113C41.477 202.724 41.6532 203.377 41.9226 204.07C42.4961 205.547 43.3849 206.476 44.5889 206.858C45.7842 207.217 47.1313 207.106 48.6302 206.524C50.2186 205.907 51.3186 205.093 51.9304 204.083C52.5335 203.051 52.5048 201.684 51.8444 199.984C51.6098 199.38 51.3018 198.753 50.9206 198.103C50.5393 197.453 50.1127 196.885 49.6407 196.399L53.4609 194.104C53.9329 194.59 54.4279 195.235 54.9458 196.037C55.4637 196.84 55.9268 197.768 56.3353 198.819C56.9609 200.43 57.2648 201.908 57.2469 203.254C57.2066 204.608 56.9203 205.827 56.388 206.909C55.8471 207.969 55.0868 208.895 54.1073 209.687C53.0967 210.466 51.9314 211.112 50.6115 211.625Z" fill="#BB6311"/>
<path d="M35.8873 180.267L37.2106 186.168L51.4022 182.986L52.5759 188.22L38.3843 191.402L39.7077 197.303L35.4221 198.264L31.6017 181.228L35.8873 180.267Z" fill="#BB6311"/>
<path d="M45.7576 168.086C45.6981 167.104 45.472 166.348 45.0793 165.819C44.6612 165.267 44.0329 165.016 43.1944 165.067C42.7632 165.093 42.4097 165.211 42.1338 165.42C41.834 165.631 41.6104 165.909 41.463 166.254C41.2917 166.601 41.1839 167.004 41.1396 167.464C41.0938 167.899 41.0862 168.369 41.1167 168.872C41.1384 169.231 41.1863 169.625 41.2603 170.053C41.3344 170.482 41.4019 170.802 41.4629 171.015L45.775 170.754C45.8055 170.463 45.8182 170.078 45.8131 169.597C45.808 169.117 45.7895 168.613 45.7576 168.086ZM37.4742 171.256C37.358 170.927 37.26 170.5 37.1802 169.976C37.075 169.429 37.0013 168.809 36.9592 168.114C36.891 166.988 36.9597 165.938 37.1651 164.964C37.3691 163.965 37.7249 163.09 38.2323 162.338C38.7158 161.588 39.3645 160.983 40.1783 160.525C40.9681 160.069 41.914 159.807 43.016 159.74C44.118 159.674 45.0879 159.807 45.9256 160.141C46.7393 160.477 47.4315 160.988 48.0021 161.674C48.5487 162.363 48.9722 163.202 49.2728 164.194C49.5958 165.16 49.7943 166.254 49.8683 167.476C49.964 169.057 49.968 170.512 49.8801 171.839C49.8162 173.166 49.6579 174.522 49.4052 175.908L31.0788 177.018L30.7545 171.663L37.4742 171.256Z" fill="#BB6311"/>
<path d="M52.676 132.62L51.7036 137.896L44.3397 136.538L43.3282 142.026L50.6921 143.383L49.7198 148.658L31.0975 145.226L32.0699 139.951L39.009 141.23L40.0205 135.742L33.0814 134.463L34.0537 129.188L52.676 132.62Z" fill="#BB6311"/>
<path d="M44.5166 126.975C42.9453 126.38 41.6652 125.627 40.6763 124.714C39.6735 123.77 38.9279 122.756 38.4395 121.673C37.9511 120.591 37.6959 119.468 37.6741 118.305C37.6607 117.119 37.8579 115.988 38.2655 114.91C39.2167 112.396 40.7428 110.703 42.8437 109.83C44.9221 108.948 47.4541 109.072 50.4395 110.202C50.7313 110.312 51.0526 110.446 51.4032 110.605C51.7314 110.755 52.026 110.892 52.2868 111.016L47.9809 122.397C49.0559 122.675 50.0579 122.502 50.9867 121.879C51.9155 121.255 52.6516 120.225 53.1952 118.788C53.5434 117.868 53.8046 116.94 53.9787 116.006C54.1388 115.04 54.2016 114.23 54.167 113.575L58.4959 114.443C58.5287 114.763 58.5275 115.173 58.4923 115.673C58.4571 116.173 58.3783 116.721 58.2557 117.316C58.1641 117.897 58.0331 118.515 57.8626 119.169C57.6922 119.823 57.488 120.464 57.2502 121.092C56.6472 122.686 55.885 123.989 54.9635 125C54.0504 125.989 53.0413 126.723 51.9359 127.203C50.8166 127.652 49.6236 127.855 48.3569 127.812C47.0986 127.747 45.8185 127.468 44.5166 126.975ZM47.0562 114.464C46.6212 114.325 46.1762 114.247 45.7212 114.228C45.2747 114.188 44.8433 114.243 44.4272 114.393C44.0195 114.521 43.6382 114.749 43.2833 115.077C42.9369 115.382 42.6533 115.826 42.4325 116.41C42.2201 116.971 42.1386 117.492 42.1877 117.972C42.2144 118.444 42.3339 118.874 42.5463 119.263C42.7586 119.651 43.0483 120.004 43.4154 120.323C43.7684 120.61 44.1455 120.869 44.5465 121.097L47.0562 114.464Z" fill="#BB6311"/>
<path d="M54.9567 77.1608C54.604 77.9981 54.2298 78.7616 53.834 79.4514C53.4382 80.1411 53.0581 80.8712 52.6937 81.6416C52.3785 82.3 52.1124 82.9929 51.8955 83.7201C51.6786 84.4474 51.5679 85.1905 51.5633 85.9495C51.5528 86.675 51.6819 87.4104 51.9506 88.1558C52.1997 88.8875 52.6523 89.6006 53.3083 90.2952C53.5949 88.5908 54.1585 87.1393 54.9991 85.9407C55.6606 84.9975 56.431 84.2334 57.3104 83.6482C58.1898 83.0631 59.1506 82.6963 60.1928 82.5477C61.2487 82.3796 62.3654 82.4592 63.5429 82.7866C64.7145 83.0806 65.9192 83.6617 67.1571 84.5298C68.4933 85.4669 69.5148 86.4764 70.2217 87.5585C70.9285 88.6405 71.3748 89.7596 71.5606 90.9159C71.7405 92.0387 71.6805 93.1692 71.3807 94.3073C71.075 95.412 70.5638 96.4753 69.8472 97.4971C67.9318 100.228 65.7353 101.605 63.258 101.626C60.7609 101.634 57.9012 100.508 54.6786 98.2476C52.5565 96.7593 50.9033 95.2921 49.7189 93.8459C48.515 92.386 47.7111 90.8988 47.3074 89.3845C46.8841 87.8565 46.8147 86.2835 47.0992 84.6656C47.3838 83.0477 47.924 81.316 48.72 79.4705C49.0372 78.7256 49.3937 78.0082 49.7895 77.3184C50.1794 76.5952 50.537 75.8347 50.8621 75.0367L54.9567 77.1608ZM56.8422 92.9055C57.0897 93.1377 57.3834 93.3876 57.7233 93.6553C58.077 93.9034 58.3914 94.1239 58.6665 94.3168C60.3957 95.5295 61.8677 96.2101 63.0827 96.3586C64.3114 96.4875 65.3254 95.9821 66.1247 94.8424C66.7999 93.8796 66.9433 92.8809 66.5549 91.8464C66.1666 90.8118 65.3436 89.8536 64.086 88.9716C63.5948 88.6271 63.0818 88.3554 62.5472 88.1563C61.993 87.9435 61.4494 87.8408 60.9166 87.8482C60.3837 87.8555 59.8783 87.9701 59.4004 88.1919C58.9224 88.4136 58.5043 88.78 58.146 89.2908C57.7877 89.8017 57.4677 90.3834 57.1859 91.0359C56.918 91.6688 56.8034 92.292 56.8422 92.9055Z" fill="#BB6311"/>
<path d="M81.9206 68.9221C82.9711 69.976 83.7838 71.0974 84.3589 72.2863C84.917 73.4582 85.2205 74.6467 85.2694 75.8517C85.3014 77.0397 85.0788 78.2103 84.6018 79.3635C84.1417 80.4997 83.4102 81.5677 82.4073 82.5673C81.4214 83.55 80.351 84.2779 79.1962 84.7512C78.0584 85.2075 76.8956 85.4178 75.7077 85.3819C74.5029 85.329 73.307 85.03 72.1199 84.485C70.9159 83.923 69.7887 83.115 68.7383 82.0611C67.6879 81.0072 66.8921 79.8858 66.351 78.697C65.8269 77.4912 65.5488 76.2943 65.5169 75.1063C65.5019 73.9014 65.7244 72.7308 66.1845 71.5945C66.6616 70.4413 67.3761 69.3903 68.328 68.4415C69.2969 67.4758 70.3502 66.7648 71.488 66.3085C72.6428 65.8352 73.8141 65.6165 75.002 65.6524C76.1899 65.6883 77.3774 65.9787 78.5644 66.5238C79.7515 67.0688 80.8702 67.8682 81.9206 68.9221ZM78.045 72.785C76.8759 71.6122 75.7231 70.9314 74.5863 70.7429C73.4497 70.5204 72.4479 70.8412 71.581 71.7053C70.714 72.5693 70.3814 73.5785 70.5832 74.7329C70.768 75.8702 71.4449 77.0253 72.614 78.1982C73.783 79.3711 74.9528 80.0688 76.1234 80.2914C77.2771 80.4969 78.2874 80.1677 79.1543 79.3036C80.0212 78.4395 80.3453 77.4388 80.1266 76.3014C79.9079 75.1301 79.214 73.9579 78.045 72.785Z" fill="#BB6311"/>
<path d="M88.8051 57.6826C89.1816 58.2685 89.5755 58.9007 89.9869 59.5792C90.4044 60.2242 90.7991 60.8997 91.171 61.6055C91.5293 62.2915 91.8511 62.9882 92.1365 63.6955C92.4417 64.3892 92.68 65.0707 92.8516 65.7401C93.052 66.5355 93.156 67.3392 93.1637 68.1513C93.1774 68.9299 93.0484 69.7344 92.7767 70.5647C92.5248 71.3814 92.0968 72.2178 91.4928 73.0739C90.8948 73.8966 90.0972 74.7262 89.1 75.5626L85.9668 72.3024C86.8365 71.4083 87.4247 70.5924 87.7312 69.8547C88.0241 69.0972 88.1106 68.3368 87.9906 67.5733C87.8661 66.9297 87.6376 66.2413 87.3052 65.5082C86.9924 64.7614 86.6198 64.0124 86.1871 63.2611C85.7408 62.49 85.2581 61.7296 84.7389 60.9798C84.2395 60.2163 83.7506 59.4892 83.2725 58.7986L82.0429 57.0228L93.7339 48.9279L104.513 64.4962L100.103 67.5497L91.8241 55.5923L88.8051 57.6826Z" fill="#BB6311"/>
<path d="M112.993 56.2599C113.887 55.85 114.51 55.3663 114.862 54.8091C115.226 54.22 115.233 53.5437 114.883 52.7801C114.703 52.3873 114.465 52.1001 114.171 51.9183C113.866 51.7146 113.526 51.6064 113.151 51.5937C112.765 51.5592 112.35 51.6042 111.906 51.7287C111.483 51.8432 111.043 52.0055 110.585 52.2155C110.257 52.3655 109.907 52.5523 109.535 52.7759C109.162 52.9996 108.887 53.1782 108.711 53.3118L110.511 57.239C110.793 57.1626 111.157 57.0354 111.603 56.8572C112.05 56.679 112.513 56.4799 112.993 56.2599ZM107.046 49.6792C107.312 49.4519 107.674 49.2065 108.134 48.9428C108.606 48.6474 109.158 48.3547 109.791 48.0647C110.816 47.5947 111.821 47.2797 112.803 47.1197C113.808 46.9498 114.752 46.9657 115.637 47.1675C116.511 47.3475 117.309 47.7343 118.03 48.3279C118.741 48.8997 119.326 49.6874 119.786 50.6911C120.246 51.6947 120.472 52.6474 120.463 53.5492C120.443 54.4291 120.217 55.2591 119.782 56.0391C119.338 56.7972 118.707 57.4954 117.891 58.1336C117.106 58.7835 116.158 59.3635 115.045 59.8735C113.605 60.5335 112.25 61.0621 110.98 61.4593C109.72 61.8784 108.398 62.2202 107.015 62.4847L99.365 45.7942L104.241 43.5593L107.046 49.6792Z" fill="#BB6311"/>
<path d="M123.737 55.1522L119.594 36.6751L124.828 35.5014L128.01 49.6929L132.823 48.6138L129.64 34.4222L134.874 33.2485L138.057 47.4401L142.834 46.3688L139.652 32.1772L144.886 31.0035L149.029 49.4807L123.737 55.1522Z" fill="#BB6311"/>
<path d="M150.485 40.3778C150.473 38.6979 150.716 37.2322 151.211 35.9809C151.731 34.7054 152.408 33.6449 153.242 32.7993C154.077 31.9537 155.032 31.3113 156.109 30.8722C157.211 30.4328 158.337 30.2093 159.489 30.2016C162.177 30.1837 164.306 30.9976 165.877 32.6432C167.448 34.2647 168.244 36.6715 168.266 39.8634C168.268 40.1754 168.258 40.5235 168.236 40.9076C168.215 41.2678 168.193 41.5919 168.171 41.8801L156.003 41.9611C156.131 43.0643 156.652 43.9368 157.569 44.5787C158.485 45.2207 159.711 45.5365 161.247 45.5263C162.231 45.5197 163.19 45.4293 164.125 45.2551C165.084 45.0567 165.863 44.8235 166.461 44.5555L167.21 48.9067C166.923 49.0526 166.54 49.1991 166.061 49.3463C165.582 49.4935 165.042 49.6171 164.443 49.7171C163.868 49.8409 163.245 49.9411 162.573 50.0175C161.902 50.094 161.23 50.1345 160.558 50.139C158.854 50.1503 157.364 49.9082 156.089 49.4127C154.838 48.917 153.789 48.24 152.943 47.3816C152.121 46.4991 151.502 45.4592 151.086 44.2619C150.694 43.0645 150.494 41.7698 150.485 40.3778ZM163.071 38.242C163.044 37.7861 162.957 37.3427 162.81 36.9117C162.687 36.4805 162.48 36.0979 162.19 35.7638C161.924 35.4295 161.574 35.1559 161.141 34.9428C160.731 34.7295 160.214 34.6249 159.591 34.6291C158.991 34.6331 158.475 34.7445 158.045 34.9634C157.614 35.1582 157.256 35.4246 156.97 35.7625C156.684 36.1004 156.459 36.498 156.294 36.9551C156.153 37.388 156.048 37.8327 155.979 38.2892L163.071 38.242Z" fill="#BB6311"/>
<path d="M183.837 31.6547C184.581 31.5375 185.357 31.3908 186.165 31.2148C187.001 31.021 187.82 30.7983 188.621 30.5466C189.428 30.2717 190.202 29.9766 190.945 29.6614C191.716 29.3285 192.423 28.9555 193.065 28.5422L196.705 29.4177L190.871 53.6741L185.656 52.4197L189.857 34.9538C189.045 35.2521 188.159 35.4958 187.2 35.6848C186.247 35.8505 185.328 35.9752 184.444 36.0588L183.837 31.6547Z" fill="#BB6311"/>
<path d="M210.089 52.9337C210.365 52.2946 210.464 51.6708 210.386 51.0625C210.318 50.432 210.003 49.7995 209.44 49.1649C208.877 48.5303 208.039 47.8683 206.925 47.179C205.811 46.4896 204.35 45.7555 202.543 44.9764C203.669 43.0312 204.765 41.034 205.831 38.9847C206.898 36.9354 207.874 35.0041 208.76 33.1908L221.157 38.5348L219.376 42.6673L211.111 39.1046C210.725 39.879 210.337 40.6266 209.948 41.3475C209.591 42.0558 209.26 42.6712 208.956 43.1936C212.079 44.8011 214.121 46.5828 215.081 48.5386C216.073 50.482 216.074 52.5997 215.086 54.8918C214.63 55.9497 214.02 56.8497 213.256 57.5918C212.492 58.3339 211.593 58.8741 210.558 59.2122C209.524 59.5504 208.353 59.6598 207.045 59.5405C205.76 59.4306 204.357 59.0479 202.836 58.3924C202.241 58.1359 201.632 57.821 201.009 57.4478C200.398 57.1062 199.813 56.7363 199.252 56.338C198.705 55.9713 198.217 55.6173 197.789 55.2761C197.361 54.9348 197.044 54.6411 196.836 54.3948L199.482 50.7133C199.928 51.1933 200.551 51.7492 201.35 52.3812C202.159 52.9911 203.191 53.5668 204.447 54.1083C205.968 54.7639 207.198 54.9414 208.138 54.6408C209.087 54.3182 209.738 53.7492 210.089 52.9337Z" fill="#BB6311"/>
<path d="M235.359 61.6302C233.076 65.1554 230.646 67.4277 228.07 68.4471C225.527 69.4594 223.077 69.2023 220.721 67.6758C218.364 66.1493 217.117 64.0123 216.981 61.2648C216.878 58.5101 217.968 55.3702 220.251 51.845C221.386 50.0925 222.562 48.6523 223.778 47.5245C225.015 46.4097 226.266 45.6042 227.531 45.1082C228.796 44.6121 230.048 44.4224 231.288 44.5391C232.528 44.6558 233.722 45.086 234.87 45.8296C237.227 47.3561 238.457 49.4967 238.56 52.2513C238.696 54.9988 237.629 58.1251 235.359 61.6302ZM230.766 58.6555C231.445 57.608 232.007 56.6286 232.455 55.7173C232.915 54.7859 233.237 53.9362 233.419 53.1682C233.602 52.4003 233.613 51.7211 233.452 51.1308C233.291 50.5404 232.929 50.0626 232.365 49.6973C231.801 49.332 231.217 49.1966 230.612 49.2912C230.028 49.3988 229.412 49.6865 228.766 50.1544C228.14 50.6354 227.496 51.2763 226.835 52.0773C226.186 52.8581 225.522 53.7722 224.844 54.8197C224.165 55.8672 223.596 56.8567 223.136 57.7881C222.675 58.7195 222.354 59.5692 222.171 60.3372C222.008 61.1182 221.997 61.7974 222.138 62.3747C222.299 62.965 222.662 63.4428 223.226 63.8081C223.79 64.1735 224.374 64.3088 224.978 64.2143C225.583 64.1197 226.198 63.832 226.824 63.351C227.45 62.8701 228.094 62.2291 228.756 61.4282C229.418 60.6272 230.088 59.703 230.766 58.6555Z" fill="#BB6311"/>
<path d="M251.566 81.3046C252.777 80.1745 253.488 79.0018 253.7 77.7865C253.929 76.5548 253.544 75.4039 252.545 74.3337C252.217 73.9828 251.897 73.6747 251.583 73.4092C251.287 73.1273 251.032 72.9063 250.816 72.746L243.738 79.3543C243.809 79.7473 243.972 80.1859 244.227 80.6702C244.499 81.1719 244.823 81.6246 245.199 82.0281C246.935 83.8877 249.058 83.6465 251.566 81.3046ZM255.406 85.2063C254.336 86.2053 253.239 86.9827 252.116 87.5384C250.993 88.0941 249.879 88.4123 248.772 88.4932C247.666 88.574 246.585 88.401 245.53 87.9741C244.475 87.5473 243.489 86.8427 242.571 85.8602C242.064 85.3164 241.641 84.7585 241.305 84.1865C240.968 83.6146 240.691 83.0192 240.474 82.4005L235.264 87.2646L231.604 83.3436L249.84 66.3193C250.273 66.5719 250.746 66.8853 251.26 67.2596C251.791 67.6174 252.321 68.0092 252.85 68.4349C253.395 68.8782 253.922 69.3378 254.432 69.8138C254.976 70.291 255.469 70.7665 255.911 71.2401C256.976 72.3805 257.75 73.5618 258.235 74.7841C258.737 75.99 258.959 77.1947 258.9 78.3983C258.859 79.5856 258.539 80.7547 257.939 81.9057C257.355 83.0743 256.511 84.1745 255.406 85.2063Z" fill="#BB6311"/>
<path d="M274.823 97.0831C271.184 98.1926 267.709 99.1363 264.397 99.9143C261.085 100.692 257.794 101.327 254.524 101.819C253.345 101.994 252.306 102.076 251.408 102.066C250.489 102.068 249.664 101.952 248.933 101.716C248.182 101.493 247.504 101.12 246.901 100.599C246.291 100.11 245.708 99.4454 245.152 98.6043C244.689 97.9034 244.329 97.2063 244.073 96.5129C243.809 95.8528 243.632 95.2796 243.541 94.7933L247.631 93.2131C247.775 93.7795 247.936 94.2628 248.114 94.663C248.292 95.0631 248.514 95.4634 248.778 95.864C249.307 96.665 249.931 97.1303 250.649 97.2598C251.361 97.4226 252.196 97.4028 253.156 97.2006C254.484 94.8565 256.052 92.3537 257.861 89.6921C259.689 87.0174 261.858 84.2043 264.367 81.2528L267.502 85.9989C266.853 86.7151 266.154 87.5075 265.405 88.3763C264.689 89.2519 263.959 90.1508 263.217 91.0729C262.494 91.9817 261.791 92.8774 261.108 93.7598C260.439 94.6622 259.836 95.4917 259.3 96.2482C260.193 96.0324 261.173 95.7736 262.239 95.472C263.306 95.1703 264.385 94.8454 265.478 94.4973C266.605 94.1559 267.698 93.8078 268.758 93.4528C269.851 93.1047 270.854 92.7728 271.768 92.4572L274.823 97.0831Z" fill="#BB6311"/>
<path d="M287.223 113.444C286.686 112.711 286.224 111.997 285.836 111.303C285.449 110.608 285.018 109.907 284.545 109.198C284.143 108.589 283.686 108.004 283.174 107.444C282.662 106.884 282.081 106.406 281.433 106.012C280.816 105.629 280.119 105.362 279.342 105.208C278.586 105.046 277.742 105.067 276.809 105.272C278.123 106.395 279.077 107.625 279.673 108.962C280.141 110.015 280.4 111.069 280.449 112.124C280.498 113.179 280.318 114.191 279.909 115.161C279.51 116.153 278.867 117.07 277.981 117.911C277.126 118.764 276.007 119.498 274.626 120.113C273.135 120.777 271.744 121.133 270.452 121.182C269.161 121.232 267.971 121.038 266.884 120.603C265.829 120.179 264.891 119.546 264.069 118.703C263.279 117.873 262.631 116.887 262.123 115.747C260.767 112.699 260.717 110.108 261.973 107.972C263.252 105.827 265.689 103.955 269.285 102.355C271.653 101.301 273.762 100.638 275.611 100.367C277.483 100.086 279.172 100.162 280.678 100.595C282.206 101.018 283.59 101.768 284.831 102.845C286.072 103.921 287.279 105.276 288.452 106.908C288.927 107.563 289.359 108.238 289.746 108.932C290.166 109.639 290.634 110.337 291.151 111.026L287.223 113.444ZM272.752 106.959C272.426 107.051 272.06 107.175 271.656 107.328C271.261 107.504 270.91 107.66 270.603 107.797C268.674 108.655 267.333 109.567 266.58 110.533C265.837 111.52 265.749 112.649 266.315 113.921C266.793 114.996 267.576 115.632 268.662 115.832C269.749 116.031 270.994 115.819 272.398 115.194C272.946 114.95 273.443 114.65 273.889 114.294C274.356 113.928 274.724 113.515 274.992 113.055C275.26 112.594 275.422 112.102 275.478 111.578C275.533 111.054 275.434 110.507 275.181 109.937C274.927 109.366 274.593 108.793 274.178 108.215C273.774 107.66 273.298 107.241 272.752 106.959Z" fill="#BB6311"/>
<path d="M283.247 131.066C282.564 131.205 281.832 131.344 281.051 131.482C280.299 131.638 279.526 131.762 278.734 131.854C277.965 131.94 277.199 131.988 276.436 131.998C275.679 132.032 274.957 132.008 274.271 131.926C273.457 131.825 272.67 131.632 271.91 131.345C271.179 131.076 270.476 130.665 269.8 130.112C269.13 129.582 268.505 128.88 267.925 128.008C267.374 127.153 266.889 126.109 266.469 124.877L270.642 123.134C271.161 124.269 271.709 125.112 272.286 125.664C272.886 126.211 273.564 126.567 274.319 126.731C274.964 126.848 275.689 126.883 276.493 126.839C277.302 126.817 278.135 126.74 278.992 126.609C279.872 126.471 280.756 126.296 281.643 126.083C282.535 125.893 283.389 125.7 284.206 125.504L286.307 125L289.627 138.827L271.215 143.249L269.962 138.033L284.104 134.637L283.247 131.066Z" fill="#BB6311"/>
<path d="M280.89 144.393C282.567 144.298 284.043 144.467 285.318 144.899C286.618 145.355 287.711 145.978 288.597 146.769C289.483 147.56 290.172 148.482 290.665 149.536C291.159 150.614 291.438 151.728 291.504 152.878C291.656 155.562 290.949 157.729 289.384 159.38C287.843 161.03 285.479 161.946 282.292 162.126C281.981 162.144 281.633 162.152 281.248 162.15C280.887 162.146 280.562 162.14 280.274 162.133L279.585 149.984C278.489 150.167 277.644 150.731 277.048 151.679C276.453 152.626 276.199 153.866 276.286 155.4C276.342 156.382 276.48 157.336 276.701 158.261C276.947 159.208 277.218 159.974 277.516 160.558L273.208 161.524C273.048 161.244 272.882 160.869 272.711 160.398C272.54 159.927 272.39 159.395 272.26 158.801C272.108 158.233 271.976 157.615 271.867 156.948C271.757 156.282 271.683 155.613 271.645 154.942C271.548 153.241 271.715 151.741 272.147 150.442C272.579 149.168 273.203 148.087 274.018 147.199C274.858 146.334 275.866 145.664 277.041 145.189C278.217 144.737 279.5 144.472 280.89 144.393ZM283.652 156.857C284.106 156.807 284.545 156.698 284.968 156.53C285.392 156.386 285.764 156.16 286.083 155.854C286.404 155.571 286.66 155.208 286.851 154.764C287.043 154.345 287.122 153.824 287.087 153.201C287.053 152.602 286.916 152.092 286.676 151.673C286.459 151.253 286.175 150.908 285.824 150.64C285.472 150.371 285.064 150.166 284.599 150.024C284.159 149.905 283.71 149.822 283.251 149.776L283.652 156.857Z" fill="#BB6311"/>
<path d="M289.257 185.175L270.467 182.823L271.138 177.465C272.328 177.614 273.506 177.773 274.67 177.943C275.857 178.116 276.95 178.277 277.947 178.426C278.944 178.575 279.811 178.707 280.546 178.824C281.302 178.967 281.859 179.061 282.216 179.105C281.326 178.292 280.424 177.478 279.51 176.662C278.596 175.847 277.692 175.056 276.796 174.291C275.921 173.553 275.078 172.842 274.269 172.161C273.456 171.503 272.707 170.913 272.023 170.392L272.609 165.713L291.398 168.064L290.732 173.387C289.541 173.238 288.4 173.083 287.307 172.922C286.235 172.788 285.261 172.653 284.382 172.519C283.504 172.385 282.733 172.265 282.069 172.157C281.429 172.053 280.931 171.979 280.574 171.934C282.49 173.625 284.208 175.17 285.726 176.57C287.241 177.993 288.605 179.361 289.82 180.674L289.257 185.175ZM292.888 177.03C292.983 176.268 293.183 175.544 293.487 174.856C293.811 174.195 294.224 173.606 294.724 173.088C295.248 172.573 295.843 172.164 296.51 171.86C297.198 171.584 297.951 171.46 298.77 171.49L299.274 175.29C298.345 175.367 297.663 175.596 297.228 175.977C296.791 176.382 296.535 176.882 296.46 177.478C296.383 178.097 296.484 178.642 296.764 179.112C297.064 179.609 297.679 180.013 298.608 180.322L297.187 183.845C296.386 183.672 295.688 183.355 295.093 182.894C294.518 182.459 294.053 181.929 293.696 181.304C293.335 180.702 293.081 180.03 292.932 179.285C292.807 178.544 292.793 177.793 292.888 177.03Z" fill="#BB6311"/>
<path d="M92.8465 201.946L88.1822 208.262C87.2818 208.304 86.2628 208.184 85.1254 207.903C83.988 207.623 82.9453 206.838 81.9973 205.549C80.2199 203.132 80.4458 200.359 82.6752 197.23L87.7535 189.957L89.989 188.313C91.721 187.039 93.4608 186.536 95.2084 186.802C96.956 187.068 98.4667 188.068 99.7405 189.8L122.892 221.278C122.508 221.684 121.917 222.274 121.12 223.046C120.393 223.829 119.586 224.547 118.7 225.199C117.814 225.85 116.964 226.382 116.15 226.795C115.376 227.178 114.615 227.365 113.865 227.358C113.115 227.351 112.376 227.149 111.65 226.753C110.934 226.286 110.206 225.549 109.466 224.542L92.8465 201.946ZM137.678 182.193C135.071 178.649 132.533 176.295 130.064 175.132C127.635 173.939 125.474 174.039 123.581 175.431C121.688 176.823 120.949 178.857 121.364 181.531C121.819 184.175 123.35 187.269 125.957 190.814C128.564 194.359 131.076 196.762 133.495 198.025C135.924 199.218 138.085 199.118 139.978 197.726C141.871 196.333 142.61 194.3 142.195 191.626C141.791 188.882 140.285 185.738 137.678 182.193ZM148.01 174.595C150.291 177.696 151.917 180.752 152.889 183.761C153.861 186.77 154.229 189.634 153.994 192.351C153.769 194.999 152.961 197.487 151.569 199.814C150.217 202.112 148.373 204.119 146.037 205.838C143.661 207.585 141.154 208.777 138.518 209.412C135.923 210.018 133.307 210.049 130.672 209.504C128.048 208.889 125.444 207.67 122.861 205.846C120.318 203.992 117.906 201.514 115.625 198.413C113.344 195.311 111.712 192.291 110.73 189.351C109.758 186.342 109.384 183.513 109.609 180.865C109.845 178.148 110.638 175.64 111.99 173.342C113.382 171.015 115.266 168.978 117.642 167.23C119.978 165.512 122.444 164.35 125.04 163.744C127.676 163.109 130.307 163.098 132.931 163.713C135.566 164.258 138.175 165.442 140.758 167.266C143.311 169.05 145.729 171.493 148.01 174.595ZM174.319 155.245C171.712 151.701 169.174 149.347 166.704 148.184C164.276 146.991 162.114 147.09 160.221 148.483C158.328 149.875 157.589 151.908 158.004 154.582C158.459 157.227 159.991 160.321 162.597 163.866C165.204 167.41 167.717 169.814 170.135 171.077C172.564 172.269 174.725 172.17 176.618 170.777C178.511 169.385 179.251 167.352 178.836 164.678C178.431 161.934 176.926 158.79 174.319 155.245ZM184.65 147.646C186.931 150.748 188.558 153.803 189.53 156.813C190.502 159.822 190.87 162.685 190.634 165.403C190.409 168.051 189.601 170.539 188.209 172.866C186.858 175.163 185.014 177.171 182.678 178.889C180.301 180.637 177.795 181.829 175.159 182.464C172.563 183.07 169.948 183.1 167.313 182.556C164.688 181.941 162.085 180.722 159.502 178.897C156.959 177.044 154.547 174.566 152.266 171.464C149.985 168.363 148.353 165.342 147.37 162.403C146.399 159.394 146.025 156.565 146.25 153.917C146.485 151.199 147.279 148.692 148.63 146.394C150.022 144.067 151.906 142.03 154.283 140.282C156.619 138.564 159.085 137.402 161.681 136.796C164.317 136.161 166.947 136.15 169.571 136.765C172.206 137.31 174.816 138.494 177.399 140.318C179.952 142.102 182.369 144.545 184.65 147.646ZM205.388 103.254C206.906 102.448 208.396 101.942 209.858 101.735C211.331 101.459 212.448 101.755 213.21 102.622C213.684 103.266 214.011 104.049 214.193 104.971C214.374 105.893 214.47 106.909 214.479 108.019L215.837 153.664C214.4 154.41 213.046 154.848 211.775 154.976C210.514 155.034 209.503 154.629 208.741 153.762C208.267 153.118 207.848 152.464 207.484 151.8C207.131 151.067 206.92 150.105 206.851 148.914L205.388 103.254ZM201.156 121.17C203.377 124.191 204.204 127.214 203.636 130.238C203.067 133.263 201.353 135.827 198.494 137.931C195.593 140.064 192.615 140.951 189.558 140.592C186.542 140.204 183.923 138.499 181.701 135.478C179.509 132.498 178.677 129.51 179.205 126.515C179.773 123.49 181.507 120.911 184.407 118.778C187.267 116.675 190.225 115.802 193.282 116.161C196.339 116.519 198.963 118.189 201.156 121.17ZM189.011 130.101C189.9 131.31 190.788 132.053 191.676 132.332C192.574 132.54 193.365 132.392 194.05 131.889C194.735 131.385 195.091 130.688 195.12 129.799C195.159 128.839 194.734 127.755 193.845 126.547C192.986 125.378 192.107 124.69 191.209 124.482C190.351 124.244 189.58 124.377 188.895 124.88C188.211 125.384 187.834 126.095 187.765 127.015C187.737 127.904 188.152 128.933 189.011 130.101ZM240.113 121.099C242.335 124.12 243.161 127.143 242.593 130.168C242.025 133.193 240.311 135.757 237.451 137.86C234.551 139.993 231.572 140.88 228.516 140.522C225.499 140.134 222.88 138.429 220.658 135.408C218.466 132.427 217.634 129.439 218.162 126.444C218.73 123.419 220.464 120.841 223.365 118.708C226.224 116.604 229.183 115.732 232.239 116.091C235.296 116.449 237.921 118.119 240.113 121.099ZM227.969 130.031C228.858 131.24 229.746 131.983 230.633 132.261C231.531 132.47 232.323 132.322 233.007 131.818C233.692 131.315 234.049 130.618 234.077 129.728C234.116 128.769 233.691 127.685 232.802 126.476C231.943 125.308 231.065 124.62 230.166 124.412C229.309 124.173 228.537 124.306 227.853 124.81C227.168 125.313 226.791 126.025 226.723 126.944C226.694 127.834 227.11 128.863 227.969 130.031Z" fill="#BB6311"/>
</svg>
